<svg version="1.1" id="图层_1" xmlns="http://www.w3.org/2000/svg" x="0" y="0" viewBox="0 0 131.1 25.1" style="enable-background:new 0 0 131.1 25.1" xml:space="preserve"><style>.st2{fill:none}</style><g id="图层_2_00000158013787033462625440000006094052418818692739_"><g style="enable-background:new"><path d="m21.2 9-3.9 8.1c-.8 1.8-2.8 2.7-6.1 2.7h-7c-2.8 0-4.2-.6-4.2-1.9 0-.1.1-.4.2-.8l4.1-8.2 3.9-7.6h4.1L9.7 6.5h6.5c3.3 0 5 .8 5 2.5zm-7.5 0h-3.6c-.9 0-1.6.3-2.1.9l-3.3 6.5c0 .5.5.8 1.4.8h5.8c.6-.1 1-.4 1.4-.8l3.3-6.5c-.1-.6-.5-.9-1.1-.9h-1.8zM35.3 11.8l1-1.8c-.1-.7-.5-1-1.2-1H23.8L25 6.5h10.8c3.3 0 5 .9 5.1 2.6l-3.9 8c-.8 1.8-2.8 2.7-6.1 2.7h-7.1c-2.8 0-4.2-.6-4.2-1.9 0-.1.1-.4.2-.8l2.1-4.1c.4-.8 1.1-1.2 2.1-1.2h11.3zm-3.7 2.6h-6.2l-1 2c0 .5.5.8 1.4.8h5.8c.5-.1 1-.4 1.5-.8l1.1-2h-2.6zM47.7 9l-.4.9-3.3 6.5-1.7 3.4H38l1.4-2.8 4.1-8.2 1.2-2.3h10.7c3.3 0 5 .9 5.1 2.6l-3.9 8.1-1.2 2.6H51l4.9-9.8c0-.7-.4-1-1.1-1h-7.1zM80.3 9l-3.9 8-1.4 2.7-1.4 2.7c-1 1.8-2.4 2.7-4.2 2.7H55l1.3-2.4h10.9c1.3 0 2.2-.5 2.8-1.3l.8-1.6H63c-2.8 0-4.2-.6-4.2-1.9 0-.1.1-.4.2-.8l4.1-8.2c.6-1.6 2.2-2.4 4.6-2.3h7.2c3.6-.1 5.3.7 5.4 2.4zm-7.6 0h-3.6c-.9 0-1.6.3-2.1.9l-3.3 6.5c0 .5.5.8 1.4.8h7.1l3.4-7.3c-.1-.6-.5-.9-1.1-.9h-1.8zM97 6.5h4.1L99.9 9 96 17.1c-.8 1.8-2.8 2.7-6.1 2.7h-7.1c-2.8 0-4.2-.6-4.2-1.9 0-.1.1-.4.2-.8L83 8.8l1.2-2.3h4.4l-1.9 3.4-3.3 6.5c0 .5.5.8 1.4.8h5.8c.5 0 1-.3 1.4-.8l3.3-6.5L97 6.5zM110.9 9h-4.1l-.5.9-3.3 6.5-1.7 3.4H97l1.4-2.8 4.1-8.2 1.2-2.3H118c3.3 0 5 .9 5.1 2.6l-3.9 8.1-1.2 2.6h-4.4l4.9-9.8c-.1-.7-.5-1-1.2-1h-2.8l-.7 1.5-4.4 9.2h-3.8l4.6-9.2.7-1.5zM120.1 19.8l6.7-13.3h4.3l-6.8 13.3h-4.2z"/></g><path class="st2" d="M113.6 7.4 108.8.8"/><path d="M114.2 7c-1.4-1.9-2.8-3.9-4.2-5.8-.2-.3-.4-.6-.6-.8-.2-.3-.7-.5-1-.3-.3.2-.5.7-.3 1 1.4 1.9 2.8 3.9 4.2 5.8.2.3.4.6.6.8.2.3.7.5 1 .3.4-.1.6-.6.3-1z"/><path class="st2" d="m114.1 7.6 7.3-6.8"/><path d="M114.6 8.1c2.1-2 4.3-4 6.4-5.9.3-.3.6-.6.9-.8.7-.7-.3-1.7-1.1-1.1-2.1 2-4.3 4-6.4 5.9-.3.3-.6.6-.9.8-.6.7.4 1.8 1.1 1.1z"/></g></svg>