<svg xmlns="http://www.w3.org/2000/svg" viewBox="0 0 64 64" style="enable-background:new 0 0 64 64" xml:space="preserve"><script/><path d="M31.9 0c9 0 16.6 3.1 22.7 9.3C60.9 15.5 64 23 64 32s-3 16.5-9.1 22.5c-6.5 6.3-14.2 9.5-23 9.5-8.6 0-16.2-3.1-22.5-9.4C3.1 48.3 0 40.8 0 32S3.1 15.7 9.4 9.3C15.6 3.1 23.1 0 31.9 0zm.2 5.8c-7.3 0-13.4 2.6-18.5 7.7C8.4 18.8 5.8 25 5.8 32c0 7.1 2.6 13.2 7.8 18.4 5.2 5.2 11.4 7.8 18.5 7.8s13.3-2.6 18.6-7.8c5-4.8 7.5-11 7.5-18.3 0-7.3-2.6-13.5-7.7-18.6-5-5.2-11.2-7.7-18.4-7.7zm8.5 18.3v13.1H37v15.5H27V37.1h-3.7v-13c0-.6.2-1.1.6-1.5.4-.4.9-.6 1.5-.6h13.1c.5 0 1 .2 1.4.6.5.4.7.9.7 1.5zm-13.1-8.3c0-3 1.5-4.5 4.5-4.5s4.5 1.5 4.5 4.5-1.5 4.5-4.5 4.5-4.5-1.5-4.5-4.5z" style="fill:#fff"/></svg>