<svg xmlns="http://www.w3.org/2000/svg" viewBox="0 0 304 73" style="enable-background:new 0 0 304 73" xml:space="preserve"><script/><path d="M200.3 0v6.5h-8.4V0h8.4zm-8.4 38.5V9.7h8.4v28.8h-8.4zm-8.2-28.2h5v5.2h-5v14.1c0 2.3 1.1 2.9 2.7 2.9.9 0 2.1-.1 2.5-.2V39c-1.1.1-3.6.3-5.4.3-7.2 0-8.2-4.5-8.2-8.7V15.5h-4.1v-5.2h4.1V1.9h8.4v8.4zM81.4 9c5.5 0 10.2 2 12.9 7l-6.5 3.4c-1.5-3.2-4.1-3.9-5.4-3.9-4.8 0-6.5 3.7-6.5 8.7 0 4.9 2.1 8.7 6.5 8.7 2.6 0 4.7-1 6-4.2l6.1 3.1c-2.6 4.6-7.3 7.6-12.8 7.6-8.6 0-14.6-5.5-14.6-15.1C67.1 14.6 73.4 9 81.4 9zm0 33.1c5.5 0 10.2 2 12.9 7l-6.5 3.4c-1.5-3.2-4.1-3.9-5.4-3.9-4.8 0-6.5 3.7-6.5 8.7 0 4.9 2.1 8.7 6.5 8.7 2.6 0 4.7-1 6-4.2l6.1 3.1c-2.6 4.6-7.3 7.6-12.8 7.6-8.6 0-14.6-5.5-14.6-15.1 0-9.7 6.3-15.3 14.3-15.3zm28.3 0c-9 0-15.3 5.5-15.3 15.1 0 9.7 6.3 15.1 15.3 15.1S125 66.8 125 57.2s-6.3-15.1-15.3-15.1zm0 6.5c4.8 0 6.9 3.7 6.9 8.3 0 5.2-2.1 9-6.9 9s-6.9-3.7-6.9-8.7 2.1-8.6 6.9-8.6zm17.1 23h8.4V53.7c0-2.6 1.1-4.8 4.5-4.8 3.2 0 4.1 1.9 4.1 4.7v18h8.4V53.9c0-2.9 1.5-5 4.3-5 3.2 0 4.3 1.8 4.3 5.9v16.8h8.4v-22c0-6.6-6.1-7.6-8.9-7.6-3.4 0-6.5 1-9.2 3.8-1.9-2.5-4.3-3.8-7.6-3.8-2.6 0-6.2.8-8.3 3.3v-2.5h-8.4v28.8zm53.6 0H172V42.8h8.4v2.5c2.2-2.5 5.7-3.3 8.3-3.3 3.3 0 5.7 1.3 7.6 3.8 2.8-2.8 5.9-3.8 9.2-3.8 2.8 0 8.9 1 8.9 7.6v22H206V54.8c0-4.1-1.1-5.9-4.3-5.9-2.8 0-4.3 2.1-4.3 5v17.7H189v-18c0-2.8-.9-4.7-4.1-4.7-3.4 0-4.5 2.2-4.5 4.8v17.9zm35.8-14.4c0-9.7 6.3-15.1 15.3-15.1s15.3 5.5 15.3 15.1-6.3 15.1-15.3 15.1c-8.9.1-15.3-5.4-15.3-15.1zm22.2-.3c0-4.6-2.1-8.3-6.9-8.3-4.8 0-6.9 3.7-6.9 8.7s2.1 8.7 6.9 8.7c4.9-.1 6.9-3.8 6.9-9.1zm19.2 14.7h-8.4V42.8h8.4v2.5c2.2-2.5 5.7-3.3 8.3-3.3 6.8 0 8.7 3.9 8.7 8.3v21.3h-8.4v-18c0-2.8-.9-4.7-4.1-4.7-3.4 0-4.5 2.2-4.5 4.8v17.9zm45.2-25.4c-3.9-2.6-8.3-4.2-12.7-4.2-5.8 0-12.2 2.8-12.2 10.1 0 6.1 6.2 7.3 11.1 8.2 3.3.6 6 1.1 6 2.9 0 2.6-3.2 2.9-4.6 2.9-3.8 0-6.5-1.6-9.1-4.1l-5.2 4.5c4.2 3.9 7.8 5.7 14.1 5.7s13-2.7 13-10.3c0-6.4-6.1-7.6-11-8.5-3.3-.6-6.1-1.1-6.1-3.1 0-1.5 1.5-2.2 3.6-2.2 2.7 0 6.3 1.1 8 3.1l5.1-5zM96.3 38.5h8.4V21.9c0-3.2 2-4.1 7-4.7l.9-.1-.1-7.5c-3 .2-6.1 1.3-7.9 3V9.7h-8.4l.1 28.8zm45.1-12.6C141.3 17 137.8 9 127.3 9c-8.8 0-14.1 5.8-14.1 16 0 8.1 5.2 14.3 14.1 14.3 6.4 0 11-2.5 14-8L135 28c-2.4 3.5-3.9 5.1-7 5.1-2.7 0-6.2-1.7-6.3-7.2h19.7zm-19.9-5.2c.4-3.8 3.3-5.5 5.7-5.5s5.5 1.3 5.7 5.5h-11.4zM156 9c7.8 0 12.8 1.8 12.8 8.3v15.2c0 2 .1 4.2.8 6h-7.8c-.3-1-.5-2-.5-3h-.1c-1.4 2.3-5.6 3.7-8.7 3.7-5.5 0-9.6-3-9.6-8.5 0-6.9 5.6-9.4 14.8-10.7l3.1-.4v-2.4c0-2.2-1.7-3.1-4-3.1-2.7 0-4 1-4.4 3.8h-8.1c.2-8.2 7.8-8.9 11.7-8.9zm-1 24.1c3.3 0 5.8-2.2 5.8-6.6v-2l-5.7 1.6c-2.1.6-4.1 1.4-4.1 3.7s1.9 3.3 4 3.3zm65.2 5.4h-8.5L202 9.7h9l5 20.3h.1l5-20.3h9l-9.9 28.8zM243.1 9c10.5 0 14.1 8 14.1 16.9h-19.8c.1 5.5 3.6 7.2 6.3 7.2 3.1 0 4.6-1.6 7-5.1l6.3 3.3c-2.9 5.4-7.5 8-14 8-8.9 0-14.1-6.2-14.1-14.3.1-10.2 5.5-16 14.2-16zm0 6.1c-2.4 0-5.4 1.7-5.7 5.5h11.5c-.4-4.2-3.4-5.5-5.8-5.5zM31.6 8.5c-8.7 0-16.3 3.2-22.2 9.2C3.3 23.9 0 31.9 0 40.2c0 8.4 3.2 16.2 9.3 22.3s14 9.4 22.3 9.4 16.4-3.3 22.7-9.5c5.9-5.8 9-13.5 9-22.2 0-8.6-3.1-16.4-9.1-22.4-6.1-6.1-13.9-9.3-22.6-9.3zm.1 5.7c7.1 0 13.5 2.7 18.4 7.6s7.5 11.3 7.5 18.3c0 7.1-2.5 13.4-7.4 18.1-5.1 5-11.7 7.7-18.5 7.7-6.9 0-13.3-2.7-18.2-7.6-4.9-5-7.7-11.5-7.7-18.2 0-6.9 2.8-13.4 7.7-18.4 4.8-4.9 11.1-7.5 18.2-7.5zm-.4 20.7c-1.8-3.3-4.8-4.6-8.4-4.6-5.2 0-9.3 3.6-9.3 9.8 0 6.3 3.9 9.8 9.4 9.8 3.6 0 6.6-2 8.3-4.9l-3.9-2c-.9 2.1-2.2 2.7-3.9 2.7-2.9 0-4.2-2.4-4.2-5.6s1.1-5.6 4.2-5.6c.8 0 2.5.5 3.5 2.6l4.3-2.2zm9.9-4.5c3.5 0 6.6 1.3 8.4 4.6l-4.2 2.2c-1-2.1-2.7-2.6-3.5-2.6-3.1 0-4.2 2.4-4.2 5.6s1.3 5.6 4.2 5.6c1.7 0 3-.6 3.9-2.7l3.9 2C48 48 44.9 50 41.3 50c-5.6 0-9.4-3.5-9.4-9.8 0-6.2 4.1-9.8 9.3-9.8z" style="fill:#fff"/></svg>