<svg xmlns="http://www.w3.org/2000/svg" viewBox="0 0 1049 489" style="enable-background:new 0 0 1049 489" xml:space="preserve"><path d="M3 7h481.5v51.8H3zM401.3 314H442V108H46v206h283.7l-30.5 107.5H187.8L163.4 335H92l23.9 86.5H-.4V475H486v-53.5H370L401.3 314zM117 262V159h254v103H117zM687 285l-34 5 .2-53H696v-51h-22.4l8.9-98h8.5V36h-41V0h-52v36h-46v52h9.3l8.6 98H544v51h51.8l.2 60-49 7 5 54 38-8c-6 77-31 116-31 116l51.7 22s11.3-17 23.3-54 16-96 16-96l32.5-6.7L687 285zM605.8 88h32.1l-5.4 98h-21.8l-4.9-98z"/><path d="M1049 237v-51h-30.1l8.9-98h18.1V36h-48V0h-57v36h-50.2L859-2 701 32v203.6S706.5 374 657 476l44 13s25.8-47.2 39-135c4.7-31.5 7-68.5 7-110 0-87 1-175 1-175l20-2.9V425l-43.4 1.1L734 483l109-18-7-41-26.6.3V60.1l21.8-3.2V246s-.3 72 9.7 135c8 57 25 105 25 105l47-10s-17-47-25-109-9-117-9-117V50l10-1.4V88h17.7l8.6 98H889v51h51v60h-46v51h46v134h57V348h45v-51h-45v-60h52zM951.2 88h32.1l-5.4 98h-21.8l-4.9-98z"/></svg>