<svg xmlns="http://www.w3.org/2000/svg" viewBox="0 0 64 64" style="enable-background:new 0 0 64 64" xml:space="preserve"><script/><path d="M54.7 9.3C48.5 3.1 40.9 0 32 0 23.1 0 15.6 3.1 9.5 9.3 3.2 15.7 0 23.3 0 32s3.2 16.3 9.5 22.6C15.8 60.9 23.3 64 32 64c8.8 0 16.4-3.2 22.9-9.5C61 48.5 64 41 64 32s-3.1-16.5-9.3-22.7zm-4 41c-5.3 5.2-11.5 7.8-18.7 7.8-7.2 0-13.3-2.6-18.5-7.8C8.4 45.2 5.8 39.1 5.8 32c0-2.7.4-5.3 1.2-7.8l16.4 7.3h-3.6v5h7.5L28 38v2.4h-8.2v5H28v7.2h8v-7.2h8.3v-4.6l10.4 4.7c-1.1 1.7-2.4 3.3-4 4.8zm-7.4-9.9h-7.4V38l.4-.7 7 3.1zm.9-6.6v-2.3h-5l8.1-15h-8.5l-5.6 12.4-3-1.3-5.1-11.1h-8.5l3.5 6.6-10.5-4.7c1.1-1.7 2.4-3.4 4-5 5-5.1 11.2-7.7 18.4-7.7 7.3 0 13.4 2.6 18.5 7.7s7.7 11.3 7.7 18.6c0 2.7-.3 5.2-1 7.6l-13-5.8z" style="fill:#fff"/></svg>